<svg width="24" height="24" viewBox="0 0 24 24" fill="none" xmlns="http://www.w3.org/2000/svg">
<path d="M12 22C10.4881 22.0043 8.99523 21.6622 7.63601 21C7.13856 20.758 6.66194 20.4754 6.21101 20.155L6.07401 20.055C4.83383 19.1396 3.81988 17.9522 3.11001 16.584C2.37574 15.1679 1.99492 13.5952 1.99996 12C1.99996 6.47715 6.47716 2 12 2C17.5229 2 22.0001 6.47715 22.0001 12C22.005 13.5944 21.6246 15.1664 20.891 16.582C20.1821 17.9494 19.1696 19.1364 17.931 20.052C17.4638 20.394 16.9679 20.6951 16.449 20.952L16.369 20.992C15.0089 21.6577 13.5143 22.0026 12 22ZM12 17C10.5015 16.9971 9.12767 17.834 8.44301 19.167C10.6844 20.2772 13.3156 20.2772 15.557 19.167V19.162C14.8715 17.8305 13.4976 16.9954 12 17ZM12 15C14.1661 15.0028 16.1634 16.1701 17.229 18.056L17.244 18.043L17.258 18.031L17.241 18.046L17.231 18.054C19.76 15.8691 20.6643 12.3423 19.4987 9.21011C18.333 6.07788 15.3431 4.00032 12.001 4.00032C8.65892 4.00032 5.669 6.07788 4.50336 9.21011C3.33772 12.3423 4.24201 15.8691 6.77101 18.054C7.83727 16.169 9.83437 15.0026 12 15ZM12 14C9.79087 14 8.00001 12.2091 8.00001 10C8.00001 7.79086 9.79087 6 12 6C14.2091 6 16 7.79086 16 10C16 11.0609 15.5786 12.0783 14.8284 12.8284C14.0783 13.5786 13.0609 14 12 14ZM12 8C10.8954 8 10 8.89543 10 10C10 11.1046 10.8954 12 12 12C13.1046 12 14 11.1046 14 10C14 8.89543 13.1046 8 12 8Z" fill="#2E3A59"/>
</svg>
